<?xml version="1.0" encoding="utf-8"?>
<!-- Generator: Adobe Illustrator 16.0.3, SVG Export Plug-In . SVG Version: 6.00 Build 0)  -->
<!DOCTYPE svg PUBLIC "-//W3C//DTD SVG 1.1//EN" "http://www.w3.org/Graphics/SVG/1.1/DTD/svg11.dtd">
<svg version="1.1" id="Layer_1" xmlns="http://www.w3.org/2000/svg" xmlns:xlink="http://www.w3.org/1999/xlink" x="0px" y="0px"
	 width="120px" height="120px" viewBox="0 0 120 120" style="enable-background:new 0 0 120 120;" xml:space="preserve">
<g>
	<path style="fill:none;stroke:#000000;stroke-width:5;stroke-miterlimit:10;" d="M2.9,60.4c7.6-12.7,30.2-21.9,57-21.9
		c26.8,0,49.4,9.2,57,21.9c-7.6,12.7-30.2,21.9-57,21.9C33.1,82.3,10.5,73.1,2.9,60.4z"/>
	<path style="fill:none;stroke:#000000;stroke-width:5;stroke-miterlimit:10;" d="M81.8,60.4c0,12.1-9.8,21.9-21.9,21.9
		C47.8,82.3,38,72.5,38,60.4c0-12.1,9.8-21.9,21.9-21.9C72,38.5,81.8,48.3,81.8,60.4z"/>
	<path style="stroke:#000000;stroke-width:5;stroke-miterlimit:10;" d="M67.3,60.4c0,4.1-3.3,7.4-7.4,7.4c-4.1,0-7.4-3.3-7.4-7.4
		c0-4.1,3.3-7.4,7.4-7.4C64,53,67.3,56.3,67.3,60.4z"/>
	<path style="fill:#FFFFFF;" d="M71.1,53c0,3.1-2.5,5.6-5.6,5.6c-3.1,0-5.6-2.5-5.6-5.6c0-3.1,2.5-5.6,5.6-5.6
		C68.6,47.4,71.1,49.9,71.1,53z"/>
	<g>
		<line style="fill:none;stroke:#000000;stroke-width:0.5;" x1="109.8" y1="30.5" x2="99.8" y2="30.5"/>
		<line style="fill:none;stroke:#000000;stroke-width:0.5;" x1="109.8" y1="40.5" x2="99.8" y2="40.5"/>
		<path style="stroke:#000000;stroke-width:0.5;" d="M99.9,37.3c0.9,0,1.6,1.4,1.6,3.2c0,1.8-0.7,3.2-1.6,3.2"/>
		<line style="fill:none;stroke:#000000;stroke-width:0.5;" x1="40" y1="4.4" x2="40" y2="10.5"/>
		<line style="fill:none;stroke:#000000;stroke-width:0.5;" x1="40" y1="10.5" x2="28.4" y2="10.5"/>
		<line style="fill:none;stroke:#000000;stroke-width:0.5;" x1="49.9" y1="10.5" x2="40" y2="10.5"/>
		<line style="fill:none;stroke:#000000;stroke-width:0.5;" x1="49.9" y1="10.5" x2="40" y2="10.5"/>
		<line style="fill:none;stroke:#000000;stroke-width:0.5;" x1="69.9" y1="2" x2="69.9" y2="10.5"/>
		<line style="fill:none;stroke:#000000;stroke-width:0.5;" x1="79.9" y1="4.5" x2="79.9" y2="10.5"/>
		<line style="fill:none;stroke:#000000;stroke-width:0.5;" x1="30" y1="20.5" x2="20" y2="20.5"/>
		<line style="fill:none;stroke:#000000;stroke-width:0.5;" x1="40" y1="10.5" x2="40" y2="20.5"/>
		<line style="fill:none;stroke:#000000;stroke-width:0.5;" x1="40" y1="20.5" x2="30" y2="20.5"/>
		<line style="fill:none;stroke:#000000;stroke-width:0.5;" x1="49.9" y1="10.5" x2="49.9" y2="20.5"/>
		<line style="fill:none;stroke:#000000;stroke-width:0.5;" x1="49.9" y1="10.5" x2="49.9" y2="20.5"/>
		<line style="fill:none;stroke:#000000;stroke-width:0.5;" x1="59.9" y1="20.5" x2="49.9" y2="20.5"/>
		<line style="fill:none;stroke:#000000;stroke-width:0.5;" x1="69.9" y1="10.5" x2="69.9" y2="20.5"/>
		<line style="fill:none;stroke:#000000;stroke-width:0.5;" x1="79.9" y1="10.5" x2="79.9" y2="20.5"/>
		<line style="fill:none;stroke:#000000;stroke-width:0.5;" x1="79.9" y1="20.5" x2="69.9" y2="20.5"/>
		<line style="fill:none;stroke:#000000;stroke-width:0.5;" x1="79.9" y1="10.5" x2="79.9" y2="20.5"/>
		<line style="fill:none;stroke:#000000;stroke-width:0.5;" x1="79.9" y1="20.5" x2="69.9" y2="20.5"/>
		<line style="fill:none;stroke:#000000;stroke-width:0.5;" x1="89.9" y1="20.5" x2="79.9" y2="20.5"/>
		<line style="fill:none;stroke:#000000;stroke-width:0.5;" x1="99.8" y1="20.5" x2="89.9" y2="20.5"/>
		<line style="fill:none;stroke:#000000;stroke-width:0.5;" x1="99.8" y1="20.5" x2="89.9" y2="20.5"/>
		<line style="fill:none;stroke:#000000;stroke-width:0.5;" x1="20" y1="20.5" x2="20" y2="30.5"/>
		<line style="fill:none;stroke:#000000;stroke-width:0.5;" x1="20" y1="30.5" x2="10" y2="30.5"/>
		<line style="fill:none;stroke:#000000;stroke-width:0.5;" x1="30" y1="20.5" x2="30" y2="30.5"/>
		<line style="fill:none;stroke:#000000;stroke-width:0.5;" x1="49.9" y1="20.5" x2="49.9" y2="30.5"/>
		<line style="fill:none;stroke:#000000;stroke-width:0.5;" x1="49.9" y1="30.5" x2="40" y2="30.5"/>
		<line style="fill:none;stroke:#000000;stroke-width:0.5;" x1="49.9" y1="20.5" x2="49.9" y2="30.5"/>
		<line style="fill:none;stroke:#000000;stroke-width:0.5;" x1="49.9" y1="30.5" x2="40" y2="30.5"/>
		<line style="fill:none;stroke:#000000;stroke-width:0.5;" x1="59.9" y1="20.5" x2="59.9" y2="30.5"/>
		<line style="fill:none;stroke:#000000;stroke-width:0.5;" x1="79.9" y1="20.5" x2="79.9" y2="30.5"/>
		<line style="fill:none;stroke:#000000;stroke-width:0.5;" x1="79.9" y1="30.5" x2="69.9" y2="30.5"/>
		<line style="fill:none;stroke:#000000;stroke-width:0.5;" x1="79.9" y1="20.5" x2="79.9" y2="30.5"/>
		<line style="fill:none;stroke:#000000;stroke-width:0.5;" x1="79.9" y1="30.5" x2="69.9" y2="30.5"/>
		<line style="fill:none;stroke:#000000;stroke-width:0.5;" x1="89.9" y1="20.5" x2="89.9" y2="30.5"/>
		<line style="fill:none;stroke:#000000;stroke-width:0.5;" x1="89.9" y1="30.5" x2="79.9" y2="30.5"/>
		<line style="fill:none;stroke:#000000;stroke-width:0.5;" x1="99.8" y1="20.5" x2="99.8" y2="30.5"/>
		<line style="fill:none;stroke:#000000;stroke-width:0.5;" x1="99.8" y1="30.5" x2="89.9" y2="30.5"/>
		<line style="fill:none;stroke:#000000;stroke-width:0.5;" x1="99.8" y1="20.5" x2="99.8" y2="30.5"/>
		<line style="fill:none;stroke:#000000;stroke-width:0.5;" x1="99.8" y1="30.5" x2="89.9" y2="30.5"/>
		<line style="fill:none;stroke:#000000;stroke-width:0.5;" x1="10" y1="30.5" x2="10" y2="40.5"/>
		<line style="fill:none;stroke:#000000;stroke-width:0.5;" x1="20" y1="30.5" x2="20" y2="40.5"/>
		<line style="fill:none;stroke:#000000;stroke-width:0.5;" x1="30" y1="30.5" x2="30" y2="40.5"/>
		<line style="fill:none;stroke:#000000;stroke-width:0.5;" x1="40" y1="30.5" x2="40" y2="40.5"/>
		<line style="fill:none;stroke:#000000;stroke-width:0.5;" x1="49.9" y1="30.5" x2="49.9" y2="40.5"/>
		<line style="fill:none;stroke:#000000;stroke-width:0.5;" x1="49.9" y1="30.5" x2="49.9" y2="40.5"/>
		<line style="fill:none;stroke:#000000;stroke-width:0.5;" x1="59.9" y1="30.5" x2="59.9" y2="40.5"/>
		<line style="fill:none;stroke:#000000;stroke-width:0.5;" x1="69.9" y1="30.5" x2="69.9" y2="40.5"/>
		<line style="fill:none;stroke:#000000;stroke-width:0.5;" x1="79.9" y1="30.5" x2="79.9" y2="40.5"/>
		<line style="fill:none;stroke:#000000;stroke-width:0.5;" x1="79.9" y1="30.5" x2="79.9" y2="40.5"/>
		<line style="fill:none;stroke:#000000;stroke-width:0.5;" x1="89.9" y1="30.5" x2="89.9" y2="40.5"/>
		<line style="fill:none;stroke:#000000;stroke-width:0.5;" x1="99.8" y1="30.5" x2="99.8" y2="40.5"/>
		<line style="fill:none;stroke:#000000;stroke-width:0.5;" x1="99.8" y1="30.5" x2="99.8" y2="40.5"/>
		<line style="fill:none;stroke:#000000;stroke-width:0.5;" x1="10" y1="40.5" x2="10" y2="50.5"/>
		<line style="fill:none;stroke:#000000;stroke-width:0.5;" x1="10" y1="50.5" x2="1.7" y2="50.5"/>
		<line style="fill:none;stroke:#000000;stroke-width:0.5;" x1="20" y1="40.5" x2="20" y2="46.5"/>
		<line style="fill:none;stroke:#000000;stroke-width:0.5;" x1="99.8" y1="40.5" x2="99.8" y2="46.5"/>
		<line style="fill:none;stroke:#000000;stroke-width:0.5;" x1="109.8" y1="40.5" x2="109.8" y2="50.5"/>
		<rect x="49.9" y="17.4" style="stroke:#000000;stroke-width:0.5;" width="1.4" height="6.3"/>
		<rect x="18.6" y="27.4" style="stroke:#000000;stroke-width:0.5;" width="1.4" height="6.3"/>
		<rect x="86.7" y="20.5" style="stroke:#000000;stroke-width:0.5;" width="6.3" height="1.4"/>
		
			<rect x="109.8" y="27.4" transform="matrix(0.865 -0.5017 0.5017 0.865 -0.3867 59.5566)" style="stroke:#000000;stroke-width:0.5;" width="1.4" height="6.3"/>
		
			<rect x="27.7" y="7.4" transform="matrix(-0.5475 -0.8368 0.8368 -0.5475 35.1707 40.0846)" style="stroke:#000000;stroke-width:0.5;" width="1.4" height="6.3"/>
		<path style="stroke:#000000;stroke-width:0.5;" d="M33.2,20.4c0,0.9-1.4,1.6-3.2,1.6c-1.8,0-3.2-0.7-3.2-1.6"/>
		<path style="stroke:#000000;stroke-width:0.5;" d="M49.9,33.7c-0.9,0-1.6-1.4-1.6-3.2c0-1.8,0.7-3.2,1.6-3.2"/>
		<path style="stroke:#000000;stroke-width:0.5;" d="M73.1,2c-0.1,0.9-1.7,1.3-3.4,1S66.6,1.8,66.7,1"/>
		<path style="stroke:#000000;stroke-width:0.5;" d="M43,2.9c0.3,0.8-0.8,2-2.5,2.6c-1.7,0.6-3.3,0.4-3.6-0.4"/>
		<path style="stroke:#000000;stroke-width:0.5;" d="M1.7,47.3c0.9,0.1,1.3,1.7,1.1,3.4c-0.3,1.8-1.2,3.1-2,2.9"/>
		<path style="stroke:#000000;stroke-width:0.5;" d="M82.9,5.1c-0.3,0.8-1.9,1-3.5,0.4C77.7,5,76.5,3.8,76.8,3"/>
	</g>
	<g>
		<line style="fill:none;stroke:#000000;stroke-width:0.5;" x1="9.8" y1="89.5" x2="19.8" y2="89.5"/>
		<line style="fill:none;stroke:#000000;stroke-width:0.5;" x1="9.8" y1="79.5" x2="19.8" y2="79.5"/>
		<path style="stroke:#000000;stroke-width:0.5;" d="M19.7,82.7c-0.9,0-1.6-1.4-1.6-3.2c0-1.8,0.7-3.2,1.6-3.2"/>
		<g>
			<line style="fill:none;stroke:#000000;stroke-width:0.5;" x1="79.7" y1="115.6" x2="79.7" y2="109.5"/>
			<line style="fill:none;stroke:#000000;stroke-width:0.5;" x1="79.7" y1="109.5" x2="91.2" y2="109.5"/>
			<line style="fill:none;stroke:#000000;stroke-width:0.5;" x1="69.7" y1="109.5" x2="79.7" y2="109.5"/>
			<line style="fill:none;stroke:#000000;stroke-width:0.5;" x1="69.7" y1="109.5" x2="79.7" y2="109.5"/>
			<line style="fill:none;stroke:#000000;stroke-width:0.5;" x1="49.7" y1="118" x2="49.7" y2="109.5"/>
			<line style="fill:none;stroke:#000000;stroke-width:0.5;" x1="39.7" y1="115.5" x2="39.7" y2="109.5"/>
			<line style="fill:none;stroke:#000000;stroke-width:0.5;" x1="89.6" y1="99.5" x2="99.6" y2="99.5"/>
			<line style="fill:none;stroke:#000000;stroke-width:0.5;" x1="79.7" y1="109.5" x2="79.7" y2="99.5"/>
			<line style="fill:none;stroke:#000000;stroke-width:0.5;" x1="79.7" y1="99.5" x2="89.6" y2="99.5"/>
			<line style="fill:none;stroke:#000000;stroke-width:0.5;" x1="69.7" y1="109.5" x2="69.7" y2="99.5"/>
			<line style="fill:none;stroke:#000000;stroke-width:0.5;" x1="69.7" y1="109.5" x2="69.7" y2="99.5"/>
			<line style="fill:none;stroke:#000000;stroke-width:0.5;" x1="59.7" y1="99.5" x2="69.7" y2="99.5"/>
			<line style="fill:none;stroke:#000000;stroke-width:0.5;" x1="49.7" y1="109.5" x2="49.7" y2="99.5"/>
			<line style="fill:none;stroke:#000000;stroke-width:0.5;" x1="39.7" y1="109.5" x2="39.7" y2="99.5"/>
			<line style="fill:none;stroke:#000000;stroke-width:0.5;" x1="39.7" y1="99.5" x2="49.7" y2="99.5"/>
			<line style="fill:none;stroke:#000000;stroke-width:0.5;" x1="39.7" y1="109.5" x2="39.7" y2="99.5"/>
			<line style="fill:none;stroke:#000000;stroke-width:0.5;" x1="39.7" y1="99.5" x2="49.7" y2="99.5"/>
			<line style="fill:none;stroke:#000000;stroke-width:0.5;" x1="29.8" y1="99.5" x2="39.7" y2="99.5"/>
			<line style="fill:none;stroke:#000000;stroke-width:0.5;" x1="19.8" y1="99.5" x2="29.8" y2="99.5"/>
			<line style="fill:none;stroke:#000000;stroke-width:0.5;" x1="19.8" y1="99.5" x2="29.8" y2="99.5"/>
			<line style="fill:none;stroke:#000000;stroke-width:0.5;" x1="99.6" y1="99.5" x2="99.6" y2="89.5"/>
			<line style="fill:none;stroke:#000000;stroke-width:0.5;" x1="99.6" y1="89.5" x2="109.6" y2="89.5"/>
			<line style="fill:none;stroke:#000000;stroke-width:0.5;" x1="89.6" y1="99.5" x2="89.6" y2="89.5"/>
			<line style="fill:none;stroke:#000000;stroke-width:0.5;" x1="69.7" y1="99.5" x2="69.7" y2="89.5"/>
			<line style="fill:none;stroke:#000000;stroke-width:0.5;" x1="69.7" y1="89.5" x2="79.7" y2="89.5"/>
			<line style="fill:none;stroke:#000000;stroke-width:0.5;" x1="69.7" y1="99.5" x2="69.7" y2="89.5"/>
			<line style="fill:none;stroke:#000000;stroke-width:0.5;" x1="69.7" y1="89.5" x2="79.7" y2="89.5"/>
			<line style="fill:none;stroke:#000000;stroke-width:0.5;" x1="59.7" y1="99.5" x2="59.7" y2="89.5"/>
			<line style="fill:none;stroke:#000000;stroke-width:0.5;" x1="39.7" y1="99.5" x2="39.7" y2="89.5"/>
			<line style="fill:none;stroke:#000000;stroke-width:0.5;" x1="39.7" y1="89.5" x2="49.7" y2="89.5"/>
			<line style="fill:none;stroke:#000000;stroke-width:0.5;" x1="39.7" y1="99.5" x2="39.7" y2="89.5"/>
			<line style="fill:none;stroke:#000000;stroke-width:0.5;" x1="39.7" y1="89.5" x2="49.7" y2="89.5"/>
			<line style="fill:none;stroke:#000000;stroke-width:0.5;" x1="29.8" y1="99.5" x2="29.8" y2="89.5"/>
			<line style="fill:none;stroke:#000000;stroke-width:0.5;" x1="29.8" y1="89.5" x2="39.7" y2="89.5"/>
			<line style="fill:none;stroke:#000000;stroke-width:0.5;" x1="19.8" y1="99.5" x2="19.8" y2="89.5"/>
			<line style="fill:none;stroke:#000000;stroke-width:0.5;" x1="19.8" y1="89.5" x2="29.8" y2="89.5"/>
			<line style="fill:none;stroke:#000000;stroke-width:0.5;" x1="19.8" y1="99.5" x2="19.8" y2="89.5"/>
			<line style="fill:none;stroke:#000000;stroke-width:0.5;" x1="19.8" y1="89.5" x2="29.8" y2="89.5"/>
			<line style="fill:none;stroke:#000000;stroke-width:0.5;" x1="109.6" y1="89.5" x2="109.6" y2="79.5"/>
			<line style="fill:none;stroke:#000000;stroke-width:0.5;" x1="99.6" y1="89.5" x2="99.6" y2="79.5"/>
			<line style="fill:none;stroke:#000000;stroke-width:0.5;" x1="89.6" y1="89.5" x2="89.6" y2="79.5"/>
			<line style="fill:none;stroke:#000000;stroke-width:0.5;" x1="79.7" y1="89.5" x2="79.7" y2="79.5"/>
			<line style="fill:none;stroke:#000000;stroke-width:0.5;" x1="69.7" y1="89.5" x2="69.7" y2="79.5"/>
			<line style="fill:none;stroke:#000000;stroke-width:0.5;" x1="69.7" y1="89.5" x2="69.7" y2="79.5"/>
			<line style="fill:none;stroke:#000000;stroke-width:0.5;" x1="59.7" y1="89.5" x2="59.7" y2="79.5"/>
			<line style="fill:none;stroke:#000000;stroke-width:0.5;" x1="49.7" y1="89.5" x2="49.7" y2="79.5"/>
			<line style="fill:none;stroke:#000000;stroke-width:0.5;" x1="39.7" y1="89.5" x2="39.7" y2="79.5"/>
			<line style="fill:none;stroke:#000000;stroke-width:0.5;" x1="39.7" y1="89.5" x2="39.7" y2="79.5"/>
			<line style="fill:none;stroke:#000000;stroke-width:0.5;" x1="29.8" y1="89.5" x2="29.8" y2="79.5"/>
			<line style="fill:none;stroke:#000000;stroke-width:0.5;" x1="19.8" y1="89.5" x2="19.8" y2="79.5"/>
			<line style="fill:none;stroke:#000000;stroke-width:0.5;" x1="19.8" y1="89.5" x2="19.8" y2="79.5"/>
			<line style="fill:none;stroke:#000000;stroke-width:0.5;" x1="109.6" y1="79.5" x2="109.6" y2="69.5"/>
			<line style="fill:none;stroke:#000000;stroke-width:0.5;" x1="109.6" y1="69.5" x2="117.9" y2="69.5"/>
			<line style="fill:none;stroke:#000000;stroke-width:0.5;" x1="99.6" y1="79.5" x2="99.6" y2="73.5"/>
			<line style="fill:none;stroke:#000000;stroke-width:0.5;" x1="19.8" y1="79.5" x2="19.8" y2="73.5"/>
			<line style="fill:none;stroke:#000000;stroke-width:0.5;" x1="9.8" y1="79.5" x2="9.8" y2="69.5"/>
			<rect x="68.3" y="96.4" style="stroke:#000000;stroke-width:0.5;" width="1.4" height="6.3"/>
			<rect x="99.6" y="86.4" style="stroke:#000000;stroke-width:0.5;" width="1.4" height="6.3"/>
			<rect x="26.6" y="98.1" style="stroke:#000000;stroke-width:0.5;" width="6.3" height="1.4"/>
			
				<rect x="8.4" y="86.4" transform="matrix(-0.8649 0.502 -0.502 -0.8649 61.9185 162.3404)" style="stroke:#000000;stroke-width:0.5;" width="1.4" height="6.3"/>
			
				<rect x="90.5" y="106.3" transform="matrix(0.547 0.8372 -0.8372 0.547 132.9531 -26.7482)" style="stroke:#000000;stroke-width:0.5;" width="1.4" height="6.3"/>
			<path style="stroke:#000000;stroke-width:0.5;" d="M86.4,99.6c0-0.9,1.4-1.6,3.2-1.6s3.2,0.7,3.2,1.6"/>
			<path style="stroke:#000000;stroke-width:0.5;" d="M69.7,86.3c0.9,0,1.6,1.4,1.6,3.2c0,1.8-0.7,3.2-1.6,3.2"/>
			<path style="stroke:#000000;stroke-width:0.5;" d="M46.5,118c0.1-0.9,1.7-1.3,3.4-1c1.8,0.3,3.1,1.2,2.9,2.1"/>
			<path style="stroke:#000000;stroke-width:0.5;" d="M76.7,117.1c-0.3-0.8,0.8-2,2.5-2.6c1.7-0.6,3.3-0.4,3.6,0.4"/>
			<path style="stroke:#000000;stroke-width:0.5;" d="M118,72.7c-0.9-0.1-1.3-1.7-1.1-3.4s1.2-3.1,2-2.9"/>
			<path style="stroke:#000000;stroke-width:0.5;" d="M36.7,114.9c0.3-0.8,1.9-1,3.5-0.5c1.7,0.6,2.8,1.7,2.5,2.5"/>
		</g>
	</g>
</g>
</svg>
