<?xml version="1.0" encoding="utf-8"?>
<!-- Generator: Adobe Illustrator 16.0.3, SVG Export Plug-In . SVG Version: 6.00 Build 0)  -->
<!DOCTYPE svg PUBLIC "-//W3C//DTD SVG 1.1//EN" "http://www.w3.org/Graphics/SVG/1.1/DTD/svg11.dtd">
<svg version="1.1" id="Layer_1" xmlns="http://www.w3.org/2000/svg" xmlns:xlink="http://www.w3.org/1999/xlink" x="0px" y="0px"
	 width="512px" height="512px" viewBox="0 0 512 512" enable-background="new 0 0 512 512" xml:space="preserve">
<path fill="none" stroke="#000000" stroke-width="19" stroke-miterlimit="10" d="M13.422,256.005
	c32.278-54.176,129.088-93.519,243.499-93.519c114.398,0,211.223,39.343,243.501,93.519
	c-32.278,54.175-129.103,93.507-243.501,93.507C142.51,349.512,45.7,310.18,13.422,256.005z"/>
<path fill="none" stroke="#000000" stroke-width="19" stroke-miterlimit="10" d="M350.39,256.005
	c0,51.615-41.852,93.469-93.467,93.469c-51.629,0-93.48-41.854-93.48-93.469c0-51.628,41.852-93.481,93.48-93.481
	C308.538,162.524,350.39,204.376,350.39,256.005z"/>
<path stroke="#000000" stroke-width="19" stroke-miterlimit="10" d="M288.422,256.005c0,17.367-14.133,31.501-31.499,31.501
	c-17.4,0-31.501-14.134-31.501-31.501c0-17.399,14.101-31.501,31.501-31.501C274.289,224.504,288.422,238.606,288.422,256.005z"/>
<path fill="#FFFFFF" d="M304.922,224.504c0,13.23-10.764,24.001-23.999,24.001c-13.255,0-24.001-10.771-24.001-24.001
	c0-13.254,10.746-24.001,24.001-24.001C294.158,200.503,304.922,211.25,304.922,224.504z"/>
<g>
	<line fill="none" stroke="#000000" x1="470.249" y1="128.25" x2="427.584" y2="128.25"/>
	<line fill="none" stroke="#000000" x1="470.249" y1="170.917" x2="427.584" y2="170.917"/>
	<path stroke="#000000" d="M427.688,157.188c3.705,0,6.708,6.147,6.707,13.729c0,7.583-3.002,13.73-6.707,13.73"/>
	<g>
		<line fill="none" stroke="#000000" x1="171.583" y1="16.881" x2="171.583" y2="42.917"/>
		<line fill="none" stroke="#000000" x1="171.583" y1="42.917" x2="122.313" y2="42.917"/>
		<line fill="none" stroke="#000000" x1="214.249" y1="42.917" x2="171.583" y2="42.917"/>
		<line fill="none" stroke="#000000" x1="214.25" y1="42.917" x2="171.583" y2="42.917"/>
		<line fill="none" stroke="#000000" x1="299.582" y1="6.623" x2="299.582" y2="42.917"/>
		<line fill="none" stroke="#000000" x1="342.25" y1="17.131" x2="342.25" y2="42.917"/>
		<line fill="none" stroke="#000000" x1="128.916" y1="85.584" x2="86.249" y2="85.583"/>
		<line fill="none" stroke="#000000" x1="171.583" y1="42.917" x2="171.583" y2="85.583"/>
		<line fill="none" stroke="#000000" x1="171.583" y1="85.584" x2="128.916" y2="85.583"/>
		<line fill="none" stroke="#000000" x1="214.249" y1="42.917" x2="214.249" y2="85.583"/>
		<line fill="none" stroke="#000000" x1="214.25" y1="42.917" x2="214.25" y2="85.583"/>
		<line fill="none" stroke="#000000" x1="256.916" y1="85.584" x2="214.25" y2="85.583"/>
		<line fill="none" stroke="#000000" x1="299.582" y1="42.917" x2="299.582" y2="85.583"/>
		<line fill="none" stroke="#000000" x1="342.249" y1="42.917" x2="342.249" y2="85.583"/>
		<line fill="none" stroke="#000000" x1="342.249" y1="85.584" x2="299.582" y2="85.583"/>
		<line fill="none" stroke="#000000" x1="342.25" y1="42.917" x2="342.25" y2="85.583"/>
		<line fill="none" stroke="#000000" x1="342.25" y1="85.584" x2="299.583" y2="85.583"/>
		<line fill="none" stroke="#000000" x1="384.916" y1="85.584" x2="342.25" y2="85.583"/>
		<line fill="none" stroke="#000000" x1="427.583" y1="85.584" x2="384.916" y2="85.583"/>
		<line fill="none" stroke="#000000" x1="427.584" y1="85.584" x2="384.917" y2="85.583"/>
		<line fill="none" stroke="#000000" x1="86.249" y1="85.583" x2="86.249" y2="128.25"/>
		<line fill="none" stroke="#000000" x1="86.249" y1="128.25" x2="43.583" y2="128.25"/>
		<line fill="none" stroke="#000000" x1="128.916" y1="85.583" x2="128.916" y2="128.25"/>
		<line fill="none" stroke="#000000" x1="214.249" y1="85.583" x2="214.249" y2="128.25"/>
		<line fill="none" stroke="#000000" x1="214.249" y1="128.25" x2="171.583" y2="128.25"/>
		<line fill="none" stroke="#000000" x1="214.25" y1="85.583" x2="214.25" y2="128.25"/>
		<line fill="none" stroke="#000000" x1="214.25" y1="128.25" x2="171.583" y2="128.25"/>
		<line fill="none" stroke="#000000" x1="256.916" y1="85.583" x2="256.916" y2="128.25"/>
		<line fill="none" stroke="#000000" x1="342.249" y1="85.583" x2="342.249" y2="128.25"/>
		<line fill="none" stroke="#000000" x1="342.249" y1="128.25" x2="299.582" y2="128.25"/>
		<line fill="none" stroke="#000000" x1="342.25" y1="85.583" x2="342.25" y2="128.25"/>
		<line fill="none" stroke="#000000" x1="342.25" y1="128.25" x2="299.583" y2="128.25"/>
		<line fill="none" stroke="#000000" x1="384.916" y1="85.583" x2="384.916" y2="128.25"/>
		<line fill="none" stroke="#000000" x1="384.916" y1="128.25" x2="342.25" y2="128.25"/>
		<line fill="none" stroke="#000000" x1="427.583" y1="85.583" x2="427.583" y2="128.25"/>
		<line fill="none" stroke="#000000" x1="427.583" y1="128.25" x2="384.916" y2="128.25"/>
		<line fill="none" stroke="#000000" x1="427.584" y1="85.583" x2="427.584" y2="128.25"/>
		<line fill="none" stroke="#000000" x1="427.584" y1="128.25" x2="384.917" y2="128.25"/>
		<line fill="none" stroke="#000000" x1="43.583" y1="128.25" x2="43.583" y2="170.917"/>
		<line fill="none" stroke="#000000" x1="86.249" y1="128.25" x2="86.249" y2="170.917"/>
		<line fill="none" stroke="#000000" x1="128.916" y1="128.25" x2="128.916" y2="170.917"/>
		<line fill="none" stroke="#000000" x1="171.583" y1="128.25" x2="171.583" y2="170.917"/>
		<line fill="none" stroke="#000000" x1="214.249" y1="128.25" x2="214.249" y2="170.917"/>
		<line fill="none" stroke="#000000" x1="214.25" y1="128.25" x2="214.25" y2="170.917"/>
		<line fill="none" stroke="#000000" x1="256.916" y1="128.25" x2="256.916" y2="170.917"/>
		<line fill="none" stroke="#000000" x1="299.582" y1="128.25" x2="299.582" y2="170.917"/>
		<line fill="none" stroke="#000000" x1="342.249" y1="128.25" x2="342.249" y2="170.917"/>
		<line fill="none" stroke="#000000" x1="342.25" y1="128.25" x2="342.25" y2="170.917"/>
		<line fill="none" stroke="#000000" x1="384.916" y1="128.25" x2="384.916" y2="170.917"/>
		<line fill="none" stroke="#000000" x1="427.583" y1="128.25" x2="427.583" y2="170.917"/>
		<line fill="none" stroke="#000000" x1="427.584" y1="128.25" x2="427.584" y2="170.917"/>
		<line fill="none" stroke="#000000" x1="512.916" y1="128.25" x2="512.916" y2="170.917"/>
		<line fill="none" stroke="#000000" x1="43.583" y1="170.917" x2="43.583" y2="213.584"/>
		<line fill="none" stroke="#000000" x1="43.583" y1="213.584" x2="8.255" y2="213.584"/>
		<line fill="none" stroke="#000000" x1="86.249" y1="170.917" x2="86.249" y2="196.707"/>
		<line fill="none" stroke="#000000" x1="427.584" y1="170.917" x2="427.584" y2="196.754"/>
		<line fill="none" stroke="#000000" x1="470.249" y1="170.917" x2="470.249" y2="213.584"/>
		<line fill="none" stroke="#000000" x1="512.916" y1="170.917" x2="512.916" y2="213.584"/>
		<line fill="none" stroke="#000000" x1="512.916" y1="213.584" x2="512.916" y2="256.251"/>
		<rect x="214.25" y="72.208" stroke="#000000" width="6" height="26.752"/>
		<rect x="80.249" y="114.874" stroke="#000000" width="6" height="26.752"/>
		<rect x="371.54" y="85.584" stroke="#000000" width="26.752" height="6"/>
		
			<rect x="470.151" y="114.874" transform="matrix(0.865 -0.5017 0.5017 0.865 -0.4872 254.6899)" stroke="#000000" width="5.999" height="26.752"/>
		
			<rect x="119.313" y="29.541" transform="matrix(-0.5472 -0.837 0.837 -0.5472 153.322 168.7765)" stroke="#000000" width="6" height="26.752"/>
		<path stroke="#000000" d="M142.646,85.23c0,3.705-6.147,6.708-13.729,6.708c-7.583,0-13.73-3.003-13.73-6.708"/>
		<path stroke="#000000" d="M214.249,141.979c-3.705,0-6.708-6.147-6.708-13.729c0-7.583,3.003-13.73,6.708-13.73"/>
		<path stroke="#000000" d="M313.157,6.433c-0.593,3.658-7.143,5.638-14.626,4.423c-7.485-1.214-13.072-5.164-12.479-8.822"/>
		<path stroke="#000000" d="M184.468,10.375c1.244,3.49-3.54,8.382-10.682,10.927c-7.143,2.544-13.943,1.778-15.187-1.712"/>
		<path stroke="#000000" d="M7.922,199.995c3.662,0.565,5.691,7.1,4.533,14.593c-1.159,7.494-5.065,13.111-8.727,12.546"/>
		<path stroke="#000000" d="M355.17,19.653c-1.194,3.507-7.981,4.367-15.159,1.922c-7.177-2.447-12.029-7.272-10.834-10.78"/>
	</g>
</g>
<g>
	<line fill="none" stroke="#000000" x1="42.667" y1="380.46" x2="85.332" y2="380.46"/>
	<line fill="none" stroke="#000000" x1="42.667" y1="337.793" x2="85.332" y2="337.794"/>
	<path stroke="#000000" d="M85.229,351.522c-3.705,0-6.708-6.146-6.707-13.729c0-7.584,3.002-13.73,6.707-13.73"/>
	<g>
		<line fill="none" stroke="#000000" x1="341.334" y1="491.829" x2="341.334" y2="465.794"/>
		<line fill="none" stroke="#000000" x1="341.334" y1="465.794" x2="390.603" y2="465.794"/>
		<line fill="none" stroke="#000000" x1="298.667" y1="465.794" x2="341.334" y2="465.794"/>
		<line fill="none" stroke="#000000" x1="298.666" y1="465.794" x2="341.333" y2="465.794"/>
		<line fill="none" stroke="#000000" x1="213.334" y1="502.087" x2="213.334" y2="465.794"/>
		<line fill="none" stroke="#000000" x1="170.666" y1="491.579" x2="170.666" y2="465.794"/>
		<line fill="none" stroke="#000000" x1="384" y1="423.126" x2="426.667" y2="423.127"/>
		<line fill="none" stroke="#000000" x1="341.334" y1="465.794" x2="341.334" y2="423.127"/>
		<line fill="none" stroke="#000000" x1="341.334" y1="423.126" x2="384" y2="423.127"/>
		<line fill="none" stroke="#000000" x1="298.667" y1="465.794" x2="298.667" y2="423.127"/>
		<line fill="none" stroke="#000000" x1="298.666" y1="465.794" x2="298.666" y2="423.127"/>
		<line fill="none" stroke="#000000" x1="256" y1="423.126" x2="298.666" y2="423.127"/>
		<line fill="none" stroke="#000000" x1="213.334" y1="465.794" x2="213.334" y2="423.127"/>
		<line fill="none" stroke="#000000" x1="170.667" y1="465.794" x2="170.667" y2="423.127"/>
		<line fill="none" stroke="#000000" x1="170.667" y1="423.126" x2="213.334" y2="423.127"/>
		<line fill="none" stroke="#000000" x1="170.666" y1="465.794" x2="170.666" y2="423.127"/>
		<line fill="none" stroke="#000000" x1="170.666" y1="423.126" x2="213.333" y2="423.127"/>
		<line fill="none" stroke="#000000" x1="128" y1="423.126" x2="170.666" y2="423.127"/>
		<line fill="none" stroke="#000000" x1="85.333" y1="423.126" x2="128" y2="423.127"/>
		<line fill="none" stroke="#000000" x1="85.332" y1="423.126" x2="127.999" y2="423.127"/>
		<line fill="none" stroke="#000000" x1="426.667" y1="423.127" x2="426.667" y2="380.46"/>
		<line fill="none" stroke="#000000" x1="426.667" y1="380.46" x2="469.334" y2="380.46"/>
		<line fill="none" stroke="#000000" x1="384" y1="423.127" x2="384" y2="380.46"/>
		<line fill="none" stroke="#000000" x1="298.667" y1="423.127" x2="298.667" y2="380.46"/>
		<line fill="none" stroke="#000000" x1="298.667" y1="380.46" x2="341.334" y2="380.46"/>
		<line fill="none" stroke="#000000" x1="298.666" y1="423.127" x2="298.666" y2="380.46"/>
		<line fill="none" stroke="#000000" x1="298.666" y1="380.46" x2="341.333" y2="380.46"/>
		<line fill="none" stroke="#000000" x1="256" y1="423.127" x2="256" y2="380.46"/>
		<line fill="none" stroke="#000000" x1="170.667" y1="423.127" x2="170.667" y2="380.46"/>
		<line fill="none" stroke="#000000" x1="170.667" y1="380.46" x2="213.334" y2="380.46"/>
		<line fill="none" stroke="#000000" x1="170.666" y1="423.127" x2="170.666" y2="380.46"/>
		<line fill="none" stroke="#000000" x1="170.666" y1="380.46" x2="213.333" y2="380.46"/>
		<line fill="none" stroke="#000000" x1="128" y1="423.127" x2="128" y2="380.46"/>
		<line fill="none" stroke="#000000" x1="128" y1="380.46" x2="170.666" y2="380.46"/>
		<line fill="none" stroke="#000000" x1="85.333" y1="423.127" x2="85.333" y2="380.46"/>
		<line fill="none" stroke="#000000" x1="85.333" y1="380.46" x2="128" y2="380.46"/>
		<line fill="none" stroke="#000000" x1="85.332" y1="423.127" x2="85.332" y2="380.46"/>
		<line fill="none" stroke="#000000" x1="85.332" y1="380.46" x2="127.999" y2="380.46"/>
		<line fill="none" stroke="#000000" x1="469.334" y1="380.46" x2="469.334" y2="337.794"/>
		<line fill="none" stroke="#000000" x1="426.667" y1="380.46" x2="426.667" y2="337.794"/>
		<line fill="none" stroke="#000000" x1="384" y1="380.46" x2="384" y2="337.794"/>
		<line fill="none" stroke="#000000" x1="341.334" y1="380.46" x2="341.334" y2="337.794"/>
		<line fill="none" stroke="#000000" x1="298.667" y1="380.46" x2="298.667" y2="337.794"/>
		<line fill="none" stroke="#000000" x1="298.666" y1="380.46" x2="298.666" y2="337.794"/>
		<line fill="none" stroke="#000000" x1="256" y1="380.46" x2="256" y2="337.794"/>
		<line fill="none" stroke="#000000" x1="213.334" y1="380.46" x2="213.334" y2="337.794"/>
		<line fill="none" stroke="#000000" x1="170.667" y1="380.46" x2="170.667" y2="337.794"/>
		<line fill="none" stroke="#000000" x1="170.666" y1="380.46" x2="170.666" y2="337.794"/>
		<line fill="none" stroke="#000000" x1="128" y1="380.46" x2="128" y2="337.794"/>
		<line fill="none" stroke="#000000" x1="85.333" y1="380.46" x2="85.333" y2="337.794"/>
		<line fill="none" stroke="#000000" x1="85.332" y1="380.46" x2="85.332" y2="337.794"/>
		<line fill="none" stroke="#000000" x1="0" y1="380.46" x2="0" y2="337.794"/>
		<line fill="none" stroke="#000000" x1="469.334" y1="337.793" x2="469.334" y2="295.126"/>
		<line fill="none" stroke="#000000" x1="469.334" y1="295.126" x2="504.661" y2="295.126"/>
		<line fill="none" stroke="#000000" x1="426.667" y1="337.793" x2="426.667" y2="312.004"/>
		<line fill="none" stroke="#000000" x1="85.332" y1="337.793" x2="85.332" y2="311.956"/>
		<line fill="none" stroke="#000000" x1="42.667" y1="337.793" x2="42.667" y2="295.126"/>
		<line fill="none" stroke="#000000" x1="0" y1="337.793" x2="0" y2="295.126"/>
		<line fill="none" stroke="#000000" x1="0" y1="295.126" x2="0" y2="252.461"/>
		<rect x="292.666" y="409.751" stroke="#000000" width="6" height="26.752"/>
		<rect x="426.667" y="367.085" stroke="#000000" width="6" height="26.752"/>
		<rect x="114.624" y="417.126" stroke="#000000" width="26.752" height="6"/>
		
			<rect x="36.766" y="367.084" transform="matrix(-0.865 0.5017 -0.5017 -0.865 265.0426 689.6223)" stroke="#000000" width="5.999" height="26.752"/>
		
			<rect x="387.603" y="452.418" transform="matrix(0.5472 0.837 -0.837 0.5472 566.7072 -116.0325)" stroke="#000000" width="6" height="26.752"/>
		<path stroke="#000000" d="M370.271,423.48c0-3.705,6.147-6.708,13.729-6.708c7.583,0,13.73,3.003,13.73,6.708"/>
		<path stroke="#000000" d="M298.667,366.731c3.705,0,6.708,6.146,6.708,13.729c0,7.584-3.003,13.73-6.708,13.73"/>
		<path stroke="#000000" d="M199.759,502.278c0.593-3.658,7.143-5.639,14.626-4.424c7.485,1.215,13.072,5.164,12.479,8.822"/>
		<path stroke="#000000" d="M328.448,498.335c-1.244-3.49,3.54-8.382,10.682-10.926c7.144-2.545,13.942-1.779,15.187,1.711"/>
		<path stroke="#000000" d="M504.994,308.716c-3.662-0.566-5.691-7.1-4.533-14.594c1.158-7.493,5.064-13.111,8.727-12.545"/>
		<path stroke="#000000" d="M157.746,489.058c1.194-3.508,7.981-4.367,15.159-1.923c7.177,2.446,12.029,7.272,10.834,10.78"/>
	</g>
</g>
</svg>
