<?xml version="1.0" encoding="utf-8"?>
<!-- Generator: Adobe Illustrator 25.4.1, SVG Export Plug-In . SVG Version: 6.00 Build 0)  -->
<svg version="1.1" id="Layer_1" xmlns="http://www.w3.org/2000/svg" xmlns:xlink="http://www.w3.org/1999/xlink" x="0px" y="0px"
	 viewBox="0 0 559.8 496" style="enable-background:new 0 0 559.8 496;" xml:space="preserve">
<style type="text/css">
	.st0{clip-path:url(#SVGID_00000115492093225040793240000009948555692140874671_);}
	.st1{clip-path:url(#SVGID_00000134944478522294900360000002413251984029235603_);}
	.st2{clip-path:url(#SVGID_00000123424601600303351560000010878775390818388628_);}
	.st3{clip-path:url(#SVGID_00000082368293897280236040000000265897634479804345_);}
</style>
<g>
	<g>
		<defs>
			<polyline id="SVGID_1_" points="560,495.9 -0.4,495.9 -0.4,-0.5 560,-0.5 560,495.9 			"/>
		</defs>
		<clipPath id="SVGID_00000092417810613049665330000004909989059823805854_">
			<use xlink:href="#SVGID_1_"  style="overflow:visible;"/>
		</clipPath>
		<g style="clip-path:url(#SVGID_00000092417810613049665330000004909989059823805854_);">
			<defs>
				<polyline id="SVGID_00000085972519227605841190000017762950892025759164_" points="152.4,-148.1 -89.9,204.5 386.5,532 
					628.8,179.4 152.4,-148.1 				"/>
			</defs>
			<clipPath id="SVGID_00000078036115295530177020000009175546768066689203_">
				<use xlink:href="#SVGID_00000085972519227605841190000017762950892025759164_"  style="overflow:visible;"/>
			</clipPath>
			<g style="clip-path:url(#SVGID_00000078036115295530177020000009175546768066689203_);">
				<defs>
					<path id="SVGID_00000053543556021294060100000010850612813187811262_" d="M559.8,132v147.9l0.3-0.4V132.1L559.8,132 M367.1-0.5
						H51L-0.4,74.2v191.9L334,495.9h77.2l0.3-0.4h-61.2L0,254.7V97.9L67.3,0h300.5L367.1-0.5"/>
				</defs>
				<clipPath id="SVGID_00000026863853411663642880000000528653972709248697_">
					<use xlink:href="#SVGID_00000053543556021294060100000010850612813187811262_"  style="overflow:visible;"/>
				</clipPath>
				
					<g transform="matrix(1 -2.980232e-08 0 1 0 0)" style="clip-path:url(#SVGID_00000026863853411663642880000000528653972709248697_);">
					
						<image style="overflow:visible;" width="2444" height="1529" xlink:href="325D58C228B0A86D.png"  transform="matrix(0.1951 0.1341 -0.1587 0.2309 152.3503 -148.4313)">
					</image>
				</g>
			</g>
		</g>
		<g style="clip-path:url(#SVGID_00000092417810613049665330000004909989059823805854_);">
			<defs>
				<polyline id="SVGID_00000082368851045430787540000008658488738462466474_" points="383.7,0 67.3,0 0,97.9 0,254.7 350.4,495.5 
					427.6,495.5 559.8,303.2 559.8,121 383.7,0 				"/>
			</defs>
			<clipPath id="SVGID_00000097501178441959439820000007464764656959937947_">
				<use xlink:href="#SVGID_00000082368851045430787540000008658488738462466474_"  style="overflow:visible;"/>
			</clipPath>
			<g style="clip-path:url(#SVGID_00000097501178441959439820000007464764656959937947_);">
				<defs>
					<polyline id="SVGID_00000072959425049999147040000011293665197257422742_" points="-0.4,495.9 -0.4,-0.5 560,-0.5 560,495.9 
						-0.4,495.9 					"/>
				</defs>
				<clipPath id="SVGID_00000091709732371681298330000004732231879339517579_">
					<use xlink:href="#SVGID_00000072959425049999147040000011293665197257422742_"  style="overflow:visible;"/>
				</clipPath>
				<g style="clip-path:url(#SVGID_00000091709732371681298330000004732231879339517579_);">
					<defs>
						<path id="SVGID_00000118370513725086720360000002232951113061904273_" d="M559.8,279.8L411.6,495.5h16l132.2-192.3V279.8
							 M383.7,0h-15.9l192,131.9V121L383.7,0"/>
					</defs>
					<clipPath id="SVGID_00000060739310463528850580000013074715090185809341_">
						<use xlink:href="#SVGID_00000118370513725086720360000002232951113061904273_"  style="overflow:visible;"/>
					</clipPath>
					
						<g transform="matrix(1 0 0 1 3.051758e-05 3.051758e-05)" style="clip-path:url(#SVGID_00000060739310463528850580000013074715090185809341_);">
						
							<image style="overflow:visible;" width="641" height="1652" xlink:href="325D58C228B0A86F.png"  transform="matrix(0.3003 0 0 -0.3003 367.5323 495.9435)">
						</image>
					</g>
				</g>
				<g style="clip-path:url(#SVGID_00000091709732371681298330000004732231879339517579_);">
					<defs>
						<polyline id="SVGID_00000133487298141844271190000003812646381650379666_" points="367.8,0 67.3,0 0,97.9 0,254.7 
							350.4,495.5 411.6,495.5 559.8,279.8 559.8,132 367.8,0 						"/>
					</defs>
					<clipPath id="SVGID_00000182489687898675234460000012379321087711525514_">
						<use xlink:href="#SVGID_00000133487298141844271190000003812646381650379666_"  style="overflow:visible;"/>
					</clipPath>
					
						<g transform="matrix(1 0 0 1 -2.980232e-08 0)" style="clip-path:url(#SVGID_00000182489687898675234460000012379321087711525514_);">
						
							<image style="overflow:visible;" width="2001" height="1772" xlink:href="325D58C228B0A86A.png"  transform="matrix(0.2802 0 0 -0.2802 -0.3022 496.0717)">
						</image>
					</g>
				</g>
			</g>
		</g>
	</g>
</g>
</svg>
