<?xml version="1.0" encoding="utf-8"?>
<!-- Generator: Adobe Illustrator 25.4.1, SVG Export Plug-In . SVG Version: 6.00 Build 0)  -->
<svg version="1.1" id="Layer_1" xmlns="http://www.w3.org/2000/svg" xmlns:xlink="http://www.w3.org/1999/xlink" x="0px" y="0px"
	 viewBox="0 0 559.8 496" style="enable-background:new 0 0 559.8 496;" xml:space="preserve">
<style type="text/css">
	.st0{fill:none;}
	.st1{clip-path:url(#SVGID_00000036250151471994848590000014721320941719613071_);}
	.st2{filter:url(#Adobe_OpacityMaskFilter);}
	.st3{mask:url(#iKryDw.tif_00000013179546227878784700000014339359619085603472_);}
	.st4{clip-path:url(#SVGID_00000156549869020854782090000016515423743298581153_);}
</style>
<g>
	<g>
		<path class="st0" d="M411.2,495.5H334l52.4,36L411.2,495.5 M543.4,121v182.1l85-123.7L543.4,121 M-16.4,97.9l-73.2,106.5
			l73.2,50.3V97.9 M152.4-147.7L50.9,0h316.4L152.4-147.7"/>
		<g transform="matrix(1 0 0 1 0 -7.629395e-06)">
			
				<image style="overflow:visible;enable-background:new    ;" width="2442" height="1527" xlink:href="1F580B5DCD508758.png"  transform="matrix(0.1951 0.1341 -0.1587 0.2309 152.3867 -148.0663)">
			</image>
		</g>
	</g>
	<g>
		<polyline class="st0" points="0,0 559.8,0 559.8,495.5 0,495.5 0,0 		"/>
		<g>
			<g>
				<defs>
					<polyline id="SVGID_1_" points="383.7,0 67.3,0 0,97.9 0,254.7 350.4,495.5 427.6,495.5 559.8,303.2 559.8,121 383.7,0 					
						"/>
				</defs>
				<clipPath id="SVGID_00000134221932897494336680000001502846901988456838_">
					<use xlink:href="#SVGID_1_"  style="overflow:visible;"/>
				</clipPath>
				<g style="clip-path:url(#SVGID_00000134221932897494336680000001502846901988456838_);">
					
						<image style="overflow:visible;enable-background:new    ;" width="1866" height="1653" xlink:href="1F580B5DCD50875E.png"  transform="matrix(0.3003 0 0 -0.3003 -0.3836 495.9435)">
					</image>
				</g>
			</g>
		</g>
	</g>
</g>
<defs>
	<filter id="Adobe_OpacityMaskFilter" filterUnits="userSpaceOnUse" x="-2512.2" y="-472.1" width="1235.7" height="1135.1">
		<feColorMatrix  type="matrix" values="1 0 0 0 0  0 1 0 0 0  0 0 1 0 0  0 0 0 1 0"/>
	</filter>
</defs>
<mask maskUnits="userSpaceOnUse" x="-2512.2" y="-472.1" width="1235.7" height="1135.1" id="iKryDw.tif_00000013179546227878784700000014339359619085603472_">
	<g class="st2">
		<g>
			<g>
				<g>
					<g>
						<defs>
							<rect id="SVGID_00000017499740036734087140000010214827353646410631_" x="-2390" y="-242.5" width="958.9" height="848.8"/>
						</defs>
						<clipPath id="SVGID_00000021838764201919575030000008839582628261666179_">
							<use xlink:href="#SVGID_00000017499740036734087140000010214827353646410631_"  style="overflow:visible;"/>
						</clipPath>
						<g>
							<g style="clip-path:url(#SVGID_00000021838764201919575030000008839582628261666179_);enable-background:new    ;">
								
									<image style="overflow:visible;" width="1853" height="1641" xlink:href="1F580B5DCD50875A.png"  transform="matrix(0.5172 0 0 0.5172 -2389.804 -242.4851)">
								</image>
							</g>
						</g>
					</g>
				</g>
			</g>
		</g>
	</g>
</mask>
<g id="iKryDw.tif" class="st3">
	<g id="Layer_0.psd">
		<g>
			<defs>
				
					<rect id="SVGID_00000139290335562146186540000001064483527948847489_" x="-2250.4" y="-411.1" transform="matrix(0.5199 -0.8542 0.8542 0.5199 -990.9688 -1572.3949)" width="712.1" height="1013"/>
			</defs>
			<clipPath id="SVGID_00000072961505405299800000000001425861692740513442_">
				<use xlink:href="#SVGID_00000139290335562146186540000001064483527948847489_"  style="overflow:visible;"/>
			</clipPath>
			
				<g transform="matrix(1 5.960464e-08 0 1 -1.220703e-04 0)" style="clip-path:url(#SVGID_00000072961505405299800000000001425861692740513442_);">
				<g style="enable-background:new    ;">
					
						<image style="overflow:visible;" width="1440" height="900" id="Layer_0" xlink:href="1F580B5DCD508759.png"  transform="matrix(0.6009 0.3658 -0.4114 0.6759 -2141.9792 -472.0772)">
					</image>
				</g>
			</g>
		</g>
	</g>
</g>
</svg>
